<svg width="720" height="520" viewBox="0 0 720 520" xmlns="http://www.w3.org/2000/svg">
  <rect width="720" height="520" fill="#ffffff"/>
  <style>
    .node { font: 24px "Inter", "Segoe UI", sans-serif; }
    .label { font: 16px "Inter", "Segoe UI", sans-serif; fill: #4b5563; }
    .circle { fill: #f8fafc; stroke: #e2e8f0; stroke-width: 2; }
    .arrow { stroke: #0f172a; stroke-width: 2.2; marker-end: url(#arrow); }
  </style>
  <defs>
    <marker id="arrow" viewBox="0 0 10 10" refX="9" refY="5" markerWidth="8" markerHeight="8" orient="auto-start-reverse">
      <path d="M 0 0 L 10 5 L 0 10 z" fill="#0f172a"/>
    </marker>
  </defs>

  <text x="360" y="38" text-anchor="middle" class="label">Emoji Battle (RPSLS) Win Map</text>

  <circle class="circle" cx="360" cy="90" r="44"/>
  <text class="node" x="360" y="98" text-anchor="middle">SPOCK</text>

  <circle class="circle" cx="565" cy="175" r="44"/>
  <text class="node" x="565" y="183" text-anchor="middle">SCISSORS</text>

  <circle class="circle" cx="520" cy="375" r="44"/>
  <text class="node" x="520" y="383" text-anchor="middle">ROCK</text>

  <circle class="circle" cx="200" cy="375" r="44"/>
  <text class="node" x="200" y="383" text-anchor="middle">PAPER</text>

  <circle class="circle" cx="155" cy="175" r="44"/>
  <text class="node" x="155" y="183" text-anchor="middle">LIZARD</text>

  <line class="arrow" x1="360" y1="134" x2="540" y2="168"/>
  <line class="arrow" x1="360" y1="134" x2="485" y2="355"/>

  <line class="arrow" x1="535" y1="210" x2="510" y2="340"/>
  <line class="arrow" x1="535" y1="210" x2="230" y2="355"/>

  <line class="arrow" x1="495" y1="395" x2="235" y2="395"/>
  <line class="arrow" x1="495" y1="395" x2="185" y2="210"/>

  <line class="arrow" x1="175" y1="355" x2="155" y2="220"/>
  <line class="arrow" x1="175" y1="355" x2="520" y2="210"/>

  <line class="arrow" x1="135" y1="175" x2="335" y2="110"/>
  <line class="arrow" x1="135" y1="175" x2="200" y2="355"/>
</svg>
